<svg width="449" height="268" viewBox="0 0 449 268" fill="none" xmlns="http://www.w3.org/2000/svg">
<path d="M448.941 254.263C446.044 224.262 424.253 161.636 380.132 132.523C380.129 132.523 380.126 132.521 380.124 132.518C366.476 123.532 351.314 116.657 335.105 112.363C331.172 111.32 327.178 110.428 323.129 109.697C314.179 108.079 304.961 107.232 295.543 107.232C289.43 107.232 283.4 107.59 277.472 108.282C243.703 112.228 182.757 139.363 158.169 135.865C152.458 135.053 152.159 128.251 157 125.119C186.86 105.798 230.091 79.5429 230.091 8.00924C230.091 -0.0701344 222.006 -1.52147 216.011 1.36705C169.402 23.8183 135.378 98.1589 130.719 108.645C130.724 108.295 158.66 54.0466 152.623 5.27393C152.101 1.06146 147.448 -1.26834 143.788 0.889099C79.0993 39.0011 87.9261 103.594 87.1349 108.579C85.9918 115.775 81.0994 121.8 74.3053 124.453C29.0316 142.129 0 172.553 0 220.23C0 226.928 4.82568 252.545 9.98069 260.37C13.1239 265.14 18.4681 268.001 24.1859 268.001H56.8401C61.304 268.001 64.4897 263.66 63.119 259.417C61.4649 254.297 60.6378 248.798 60.6378 242.923C60.6378 228.694 65.6086 216.658 75.5501 206.813C85.4891 196.969 97.5958 192.044 111.869 192.044C123.399 192.044 133.622 195.479 142.545 202.346C144.462 203.82 144.835 206.561 143.387 208.497L133.294 221.987C131.828 223.945 129.048 224.305 127.108 222.812C122.782 219.482 117.702 217.818 111.869 217.818C104.859 217.818 98.8706 220.261 93.8998 225.141C88.9291 230.02 86.4462 235.948 86.4462 242.922C86.4462 249.897 88.9291 255.859 93.8998 260.803C98.0193 264.903 102.838 267.3 108.356 268H143.487C150.145 268 153.46 261.239 153.46 253.043C153.46 249.663 153.513 246.614 153.513 243.019V196.534C153.513 194.053 155.526 192.042 158.01 192.042H174.818C177.305 192.042 179.321 194.056 179.321 196.54V243.019C179.321 250.02 181.783 256.001 186.707 260.965C186.864 261.124 187.022 261.279 187.182 261.433C191.622 265.703 197.603 268 203.767 268H205.481C211.685 268 217.709 265.706 222.204 261.433C222.365 261.279 222.526 261.124 222.685 260.965C227.675 256 230.17 250.019 230.17 243.018V196.344C230.17 193.968 232.099 192.041 234.478 192.041H251.628C254.031 192.041 255.979 193.987 255.979 196.387V243.018C255.979 248.392 255.954 252.091 255.954 257.03C255.954 266.773 256.122 267.999 260.23 267.999C264.338 267.999 265.381 263.672 264.013 259.443C262.353 254.315 261.522 248.807 261.522 242.921C261.522 228.691 266.49 216.656 276.432 206.81C286.373 196.967 298.479 192.041 312.754 192.041C327.028 192.041 339.101 196.957 348.979 206.791C351.583 209.392 357.305 215.396 359.453 219.79C360.444 221.818 359.391 224.253 357.241 224.953L292.757 245.92C290.024 246.929 290.171 247.962 290.171 250.116C290.171 258.341 294.423 261.003 297.65 263.35C301.163 265.905 305.031 267.457 309.257 268H316.315C322.987 268 340.388 268 347.996 268H359.343C365.163 268 371.881 265.862 371.881 258.318V196.509C371.881 194.042 373.883 192.042 376.353 192.042H393.359C395.749 192.042 397.687 193.977 397.687 196.365V259.196C397.687 265.919 402.688 267.999 410.415 267.999H436.491C443.892 267.999 449.653 261.62 448.942 254.262L448.941 254.263Z" fill="#FF6D00"/>
</svg>
