<svg width="121" height="73" viewBox="0 0 121 73" fill="none" xmlns="http://www.w3.org/2000/svg">
<path d="M120.984 69.2581C120.203 61.0862 114.331 44.0275 102.441 36.0976L102.439 36.0963C98.7605 33.6485 94.6746 31.7758 90.3064 30.6064C89.2466 30.3222 88.1703 30.0793 87.079 29.8801C84.6673 29.4394 82.183 29.2085 79.645 29.2085C77.9976 29.2085 76.3727 29.3061 74.775 29.4948C65.6747 30.5696 49.2507 37.9608 42.6246 37.008C41.0855 36.7867 41.0049 34.9341 42.3094 34.0808C50.3564 28.818 62.0066 21.6665 62.0066 2.18162C62.0066 -0.0191035 59.8278 -0.41443 58.2122 0.372367C45.6518 6.4878 36.4827 26.7372 35.2272 29.5934C35.2283 29.4982 42.757 14.7216 41.13 1.43655C40.9894 0.289129 39.7354 -0.345481 38.7491 0.242179C21.3162 10.6234 23.6949 28.2176 23.4817 29.5755C23.1737 31.5356 21.8553 33.1768 20.0243 33.8994C7.82365 38.7141 0 47.0012 0 59.988C0 61.8125 1.30046 68.7902 2.68967 70.9215C3.53672 72.2209 4.97693 73 6.5178 73H15.3177C16.5206 73 17.3791 71.8176 17.0098 70.6621C16.564 69.2672 16.3411 67.7696 16.3411 66.1692C16.3411 62.2933 17.6807 59.015 20.3598 56.3332C23.0382 53.6519 26.3008 52.3103 30.1474 52.3103C33.2545 52.3103 36.0095 53.2461 38.4141 55.1164C38.9306 55.5181 39.0313 56.2647 38.641 56.7921L35.921 60.4663C35.526 60.9998 34.7767 61.0978 34.2541 60.6911C33.0882 59.7841 31.7192 59.3309 30.1474 59.3309C28.2582 59.3309 26.6443 59.9964 25.3048 61.3255C23.9652 62.6546 23.2961 64.2692 23.2961 66.169C23.2961 68.0687 23.9652 69.6927 25.3048 71.0395C26.4149 72.1563 27.7134 72.8093 29.2006 72.9998H38.668C40.4621 72.9998 41.3554 71.1581 41.3554 68.9256C41.3554 68.005 41.3698 67.1747 41.3698 66.1953V53.5333C41.3698 52.8576 41.9124 52.3099 42.5817 52.3099H47.1111C47.7815 52.3099 48.3248 52.8585 48.3248 53.5351V66.1953C48.3248 68.1023 48.9881 69.7315 50.315 71.0837C50.3575 71.1268 50.4 71.1692 50.4431 71.2109C51.6395 72.3742 53.2514 72.9998 54.9127 72.9998H55.3744C57.0465 72.9998 58.6698 72.3749 59.8811 71.2109C59.9244 71.1692 59.9678 71.1268 60.0107 71.0835C61.3554 69.7312 62.0279 68.1021 62.0279 66.1951V53.4816C62.0279 52.8345 62.5476 52.3096 63.1889 52.3096H67.8106C68.4581 52.3096 68.9832 52.8397 68.9832 53.4934V66.1951C68.9832 67.6589 68.9762 68.6664 68.9762 70.0118C68.9762 72.6657 69.0216 72.9995 70.1286 72.9995C71.2356 72.9995 71.5167 71.8208 71.148 70.6691C70.7006 69.2722 70.4769 67.7719 70.4769 66.1685C70.4769 62.2926 71.8157 59.0143 74.4948 56.3325C77.1739 53.6512 80.4363 52.3096 84.2831 52.3096C88.1299 52.3096 91.3833 53.6487 94.0453 56.3273C94.747 57.0356 96.2892 58.6712 96.868 59.868C97.1351 60.4205 96.8511 61.0837 96.2719 61.2742L78.8943 66.9855C78.1576 67.2604 78.1974 67.5416 78.1974 68.1284C78.1974 70.3688 79.3433 71.0939 80.2128 71.7333C81.1596 72.4291 82.2019 72.8519 83.3408 72.9998H85.2429C87.0408 72.9998 91.7302 72.9998 93.7804 72.9998H96.8383C98.4066 72.9998 100.217 72.4176 100.217 70.3627V53.5265C100.217 52.8547 100.757 52.3099 101.422 52.3099H106.005C106.649 52.3099 107.171 52.837 107.171 53.4872V70.6017C107.171 72.433 108.519 72.9995 110.602 72.9995H117.629C119.623 72.9995 121.175 71.2622 120.984 69.2581Z" fill="#1D1D1F"/>
</svg>
